<svg width="16" height="16" viewBox="0 0 16 16" fill="none" xmlns="http://www.w3.org/2000/svg">
<g clip-path="url(#clip0_239_2624)">
<path d="M1.33203 7.99984C1.33203 5.48568 1.33203 4.2286 2.11308 3.44755C2.89413 2.6665 4.1512 2.6665 6.66536 2.6665H9.33203C11.8462 2.6665 13.1033 2.6665 13.8843 3.44755C14.6654 4.2286 14.6654 5.48568 14.6654 7.99984V9.33317C14.6654 11.8473 14.6654 13.1044 13.8843 13.8854C13.1033 14.6665 11.8462 14.6665 9.33203 14.6665H6.66536C4.1512 14.6665 2.89413 14.6665 2.11308 13.8854C1.33203 13.1044 1.33203 11.8473 1.33203 9.33317V7.99984Z" stroke="#D3D3D3" stroke-width="1.5"/>
<path opacity="0.5" d="M4.66797 2.6665V1.6665" stroke="#D3D3D3" stroke-width="1.5" stroke-linecap="round"/>
<path opacity="0.5" d="M11.332 2.6665V1.6665" stroke="#D3D3D3" stroke-width="1.5" stroke-linecap="round"/>
<path opacity="0.5" d="M1.33203 6H14.6654" stroke="#D3D3D3" stroke-width="1.5" stroke-linecap="round"/>
<path d="M11 12C11.5523 12 12 11.5523 12 11C12 10.4477 11.5523 10 11 10C10.4477 10 10 10.4477 10 11C10 11.5523 10.4477 12 11 12Z" stroke="#D3D3D3" stroke-width="1.5"/>
</g>
<defs>
<clipPath id="clip0_239_2624">
<rect width="16" height="16" fill="white"/>
</clipPath>
</defs>
</svg>
