<svg width="24" height="24" viewBox="0 0 24 24" fill="none" xmlns="http://www.w3.org/2000/svg">
<path d="M9.64941 2.5H14.3496C15.0699 2.5 15.6589 3.04455 15.7236 3.73535L15.7295 3.875V4.82031C15.7293 5.58403 15.1134 6.2002 14.3496 6.2002H9.63965C8.87595 6.20013 8.25993 5.58399 8.25977 4.82031V3.87988C8.25983 3.167 8.80713 2.57762 9.50781 2.50684L9.64941 2.5Z" stroke="#CAC7C7"/>
<path d="M17.7402 4.81982C17.7403 4.65343 17.925 4.51949 18.1074 4.61279C19.3586 5.27938 20.2098 6.60198 20.21 8.11963V17.5298C20.21 19.7136 18.424 21.4994 16.2402 21.4995H7.75977C5.57603 21.4994 3.79004 19.7136 3.79004 17.5298V8.11963C3.79017 6.60231 4.64084 5.27953 5.8916 4.61279C6.07429 4.51866 6.25965 4.65317 6.25977 4.81982C6.25977 6.68597 7.78425 8.21045 9.65039 8.21045H14.3496C16.2158 8.21045 17.7402 6.68597 17.7402 4.81982ZM15.6934 11.3169C15.2384 10.8619 14.5096 10.8327 14.0205 11.231L13.9268 11.3169L10.8096 14.4321L10.1934 13.8169C9.7081 13.3316 8.91202 13.3316 8.42676 13.8169C7.94159 14.3022 7.94153 15.0983 8.42676 15.5835L9.92676 17.0835C10.1753 17.332 10.4943 17.4496 10.8096 17.4497C11.0855 17.4497 11.3646 17.3595 11.5967 17.1704L11.6934 17.0835L15.6934 13.0835C16.1786 12.5983 16.1785 11.8022 15.6934 11.3169Z" stroke="#CAC7C7"/>
</svg>
