<svg width="33" height="30" viewBox="0 0 33 30" fill="none" xmlns="http://www.w3.org/2000/svg">
<rect x="0.5" y="0.5" width="32" height="29" rx="11.5" fill="white"/>
<rect x="0.5" y="0.5" width="32" height="29" rx="11.5" stroke="#D3D3D3"/>
<path fill-rule="evenodd" clip-rule="evenodd" d="M15.6611 11.2857C15.6611 12.8242 14.1586 14.0714 12.3052 14.0714C10.4517 14.0714 8.94922 12.8242 8.94922 11.2857C8.94922 9.74721 10.4517 8.5 12.3052 8.5C14.1586 8.5 15.6611 9.74721 15.6611 11.2857ZM24.6102 11.2857C24.6102 12.8242 23.1078 14.0714 21.2543 14.0714C19.4009 14.0714 17.8984 12.8242 17.8984 11.2857C17.8984 9.74721 19.4009 8.5 21.2543 8.5C23.1078 8.5 24.6102 9.74721 24.6102 11.2857ZM12.3052 21.5C14.1586 21.5 15.6611 20.2528 15.6611 18.7143C15.6611 17.1758 14.1586 15.9286 12.3052 15.9286C10.4517 15.9286 8.94922 17.1758 8.94922 18.7143C8.94922 20.2528 10.4517 21.5 12.3052 21.5ZM24.6102 18.7143C24.6102 20.2528 23.1078 21.5 21.2543 21.5C19.4009 21.5 17.8984 20.2528 17.8984 18.7143C17.8984 17.1758 19.4009 15.9286 21.2543 15.9286C23.1078 15.9286 24.6102 17.1758 24.6102 18.7143Z" fill="black"/>
</svg>
