<svg width="24" height="24" viewBox="0 0 24 24" fill="none" xmlns="http://www.w3.org/2000/svg">
<path d="M17.0771 24H1.87804C1.55093 24 1.28571 23.7348 1.28571 23.4077V5.16886C1.28571 4.84174 1.55093 4.57653 1.87804 4.57653H17.077C17.4042 4.57653 17.6694 4.84174 17.6694 5.16886V6.33618H19.1677C19.4948 6.33618 19.76 6.6014 19.76 6.92851C19.76 7.25562 19.4948 7.52083 19.1677 7.52083H17.6694V9.04711H18.4105C18.7376 9.04711 19.0028 9.31232 19.0028 9.63943C19.0028 9.96655 18.7376 10.2318 18.4105 10.2318H17.6694V11.7581H19.1677C19.4948 11.7581 19.76 12.0233 19.76 12.3504C19.76 12.6775 19.4948 12.9428 19.1677 12.9428H17.6694V14.469H18.4105C18.7376 14.469 19.0028 14.7342 19.0028 15.0613C19.0028 15.3884 18.7376 15.6536 18.4105 15.6536H17.6694V23.4077C17.6694 23.7348 17.4042 24 17.0771 24ZM2.47036 22.8153H16.4847V5.76118H2.47036V22.8153ZM12.3127 21.7115C10.7893 21.7115 9.54984 20.4721 9.54984 18.9487C9.54984 17.4253 10.7893 16.186 12.3127 16.186C13.8361 16.186 15.0754 17.4253 15.0754 18.9487C15.0754 20.4721 13.8361 21.7115 12.3127 21.7115ZM12.3127 17.3706C11.4425 17.3706 10.7345 18.0786 10.7345 18.9487C10.7345 19.8188 11.4425 20.5268 12.3127 20.5268C13.1829 20.5268 13.8908 19.8188 13.8908 18.9487C13.8908 18.0786 13.1829 17.3706 12.3127 17.3706ZM22.122 19.4235H19.4117C19.0846 19.4235 18.8194 19.1583 18.8194 18.8311C18.8194 18.504 19.0846 18.2388 19.4117 18.2388H21.5296V1.18465H7.51528V3.0584C7.51528 3.38551 7.25006 3.65073 6.92295 3.65073C6.59584 3.65073 6.33063 3.38551 6.33063 3.0584V0.592326C6.33063 0.265214 6.59584 0 6.92295 0H22.1219C22.449 0 22.7142 0.265214 22.7142 0.592326V18.8311C22.7143 19.1583 22.449 19.4235 22.122 19.4235ZM7.78775 17.4184H4.9026C4.57549 17.4184 4.31028 17.1532 4.31028 16.8261C4.31028 16.499 4.57549 16.2338 4.9026 16.2338H7.78775C8.11486 16.2338 8.38007 16.499 8.38007 16.8261C8.38007 17.1532 8.11486 17.4184 7.78775 17.4184ZM14.0526 14.7964H4.9026C4.57549 14.7964 4.31028 14.5312 4.31028 14.2041C4.31028 13.877 4.57549 13.6118 4.9026 13.6118H14.0526C14.3797 13.6118 14.6449 13.877 14.6449 14.2041C14.6449 14.5312 14.3797 14.7964 14.0526 14.7964ZM14.0526 12.1744H4.9026C4.57549 12.1744 4.31028 11.9092 4.31028 11.5821C4.31028 11.255 4.57549 10.9898 4.9026 10.9898H14.0526C14.3797 10.9898 14.6449 11.255 14.6449 11.5821C14.6449 11.9092 14.3797 12.1744 14.0526 12.1744ZM7.78775 9.55244H4.9026C4.57549 9.55244 4.31028 9.28722 4.31028 8.96011C4.31028 8.633 4.57549 8.36778 4.9026 8.36778H7.78775C8.11486 8.36778 8.38007 8.633 8.38007 8.96011C8.38007 9.28722 8.11486 9.55244 7.78775 9.55244Z" fill="white"/>
</svg>
