<svg width="24" height="24" viewBox="0 0 24 24" fill="none" xmlns="http://www.w3.org/2000/svg">
<path fill-rule="evenodd" clip-rule="evenodd" d="M23.7048 22.3252L19.5794 18.2947L19.4858 18.1495C19.3034 17.966 19.0598 17.8676 18.8018 17.8676C18.5487 17.8676 18.3003 17.966 18.1227 18.1495C14.6164 21.3641 9.2167 21.5381 5.49928 18.5563C1.78186 15.5709 0.905897 10.3585 3.45098 6.37124C5.99606 2.38514 11.1714 0.863659 15.544 2.81351C19.9178 4.76336 22.1341 9.5798 20.7194 14.0711C20.621 14.3998 20.7002 14.7514 20.9389 14.9998C21.1741 15.2482 21.5305 15.3514 21.8677 15.2758C22.2049 15.2014 22.4773 14.9518 22.5805 14.629C24.2676 9.30022 21.7177 3.56345 16.5808 1.12884C11.4426 -1.30218 5.25569 0.300902 2.02664 4.90255C-1.2036 9.5054 -0.510036 15.7209 3.66217 19.5366C7.82837 23.3476 14.2229 23.6091 18.7035 20.151L22.3549 23.7219C22.7305 24.0927 23.3388 24.0927 23.7192 23.7219C24.0936 23.3512 24.0936 22.7512 23.7192 22.3768L23.7048 22.3252Z" fill="#A9A9A9"/>
</svg>
