<svg width="33" height="33" viewBox="0 0 33 33" fill="none" xmlns="http://www.w3.org/2000/svg">
<path d="M16.5 20.626V2.75098M16.5 2.75098L20.625 7.56348M16.5 2.75098L12.375 7.56348" stroke="white" stroke-width="2" stroke-linecap="round" stroke-linejoin="round"/>
<path d="M10.998 30.25H21.998C25.8871 30.25 27.8316 30.25 29.0398 29.0418C30.248 27.8337 30.248 25.8891 30.248 22V20.625C30.248 16.736 30.248 14.7915 29.0398 13.5832C27.9833 12.5267 26.3637 12.3941 23.373 12.3774M9.62305 12.3774C6.63238 12.3941 5.01275 12.5267 3.95623 13.5832C2.74805 14.7915 2.74805 16.736 2.74805 20.625V22C2.74805 25.8891 2.74805 27.8337 3.95623 29.0418C4.36846 29.454 4.8664 29.7256 5.49805 29.9046" stroke="white" stroke-width="2" stroke-linecap="round"/>
</svg>
